<svg width="90" height="90" viewBox="0 0 90 90" fill="none" xmlns="http://www.w3.org/2000/svg">
<path d="M45 45C47.0625 45 48.8281 44.2656 50.2969 42.7969C51.7656 41.3281 52.5 39.5625 52.5 37.5C52.5 35.4375 51.7656 33.6719 50.2969 32.2031C48.8281 30.7344 47.0625 30 45 30C42.9375 30 41.1719 30.7344 39.7031 32.2031C38.2344 33.6719 37.5 35.4375 37.5 37.5C37.5 39.5625 38.2344 41.3281 39.7031 42.7969C41.1719 44.2656 42.9375 45 45 45ZM45 72.5625C52.625 65.5625 58.2813 59.2031 61.9688 53.4844C65.6562 47.7656 67.5 42.6875 67.5 38.25C67.5 31.4375 65.3281 25.8594 60.9844 21.5156C56.6406 17.1719 51.3125 15 45 15C38.6875 15 33.3594 17.1719 29.0156 21.5156C24.6719 25.8594 22.5 31.4375 22.5 38.25C22.5 42.6875 24.3438 47.7656 28.0312 53.4844C31.7187 59.2031 37.375 65.5625 45 72.5625ZM45 82.5C34.9375 73.9375 27.4219 65.9844 22.4531 58.6406C17.4844 51.2969 15 44.5 15 38.25C15 28.875 18.0156 21.4062 24.0469 15.8438C30.0781 10.2813 37.0625 7.5 45 7.5C52.9375 7.5 59.9219 10.2813 65.9531 15.8438C71.9844 21.4062 75 28.875 75 38.25C75 44.5 72.5156 51.2969 67.5469 58.6406C62.5781 65.9844 55.0625 73.9375 45 82.5Z" fill="#409618"/>
</svg>
